<svg xmlns="http://www.w3.org/2000/svg" xmlns:xlink="http://www.w3.org/1999/xlink" width="1000" zoomAndPan="magnify" viewBox="0 0 750 749.999995" height="1000" preserveAspectRatio="xMidYMid meet" version="1.2"><defs><clipPath id="c9680756f1"><path d="M 91.527344 36.601562 L 598.65625 36.601562 L 598.65625 543.730469 L 91.527344 543.730469 Z M 91.527344 36.601562 "/></clipPath><clipPath id="a470b50d85"><path d="M 345.09375 36.601562 C 205.054688 36.601562 91.527344 150.128906 91.527344 290.167969 C 91.527344 430.207031 205.054688 543.730469 345.09375 543.730469 C 485.132812 543.730469 598.65625 430.207031 598.65625 290.167969 C 598.65625 150.128906 485.132812 36.601562 345.09375 36.601562 Z M 345.09375 36.601562 "/></clipPath><clipPath id="8427de2588"><path d="M 0.527344 0.601562 L 507.65625 0.601562 L 507.65625 507.730469 L 0.527344 507.730469 Z M 0.527344 0.601562 "/></clipPath><clipPath id="ad41bc2663"><path d="M 254.09375 0.601562 C 114.054688 0.601562 0.527344 114.128906 0.527344 254.167969 C 0.527344 394.207031 114.054688 507.730469 254.09375 507.730469 C 394.132812 507.730469 507.65625 394.207031 507.65625 254.167969 C 507.65625 114.128906 394.132812 0.601562 254.09375 0.601562 Z M 254.09375 0.601562 "/></clipPath><clipPath id="b3d7d2fc76"><rect x="0" width="508" y="0" height="508"/></clipPath><clipPath id="523ff19a6f"><path d="M 153.015625 98.09375 L 537.167969 98.09375 L 537.167969 482.242188 L 153.015625 482.242188 Z M 153.015625 98.09375 "/></clipPath><clipPath id="940bbe8331"><path d="M 345.09375 98.09375 C 239.011719 98.09375 153.015625 184.085938 153.015625 290.167969 C 153.015625 396.246094 239.011719 482.242188 345.09375 482.242188 C 451.171875 482.242188 537.167969 396.246094 537.167969 290.167969 C 537.167969 184.085938 451.171875 98.09375 345.09375 98.09375 Z M 345.09375 98.09375 "/></clipPath><clipPath id="f3c4e8b183"><path d="M 0.015625 0.09375 L 384.167969 0.09375 L 384.167969 384.242188 L 0.015625 384.242188 Z M 0.015625 0.09375 "/></clipPath><clipPath id="fe0f0efcbf"><path d="M 192.09375 0.09375 C 86.011719 0.09375 0.015625 86.085938 0.015625 192.167969 C 0.015625 298.246094 86.011719 384.242188 192.09375 384.242188 C 298.171875 384.242188 384.167969 298.246094 384.167969 192.167969 C 384.167969 86.085938 298.171875 0.09375 192.09375 0.09375 Z M 192.09375 0.09375 "/></clipPath><clipPath id="011c2b5d4c"><rect x="0" width="385" y="0" height="385"/></clipPath></defs><g id="60ae346813"><path style="fill:none;stroke-width:96;stroke-linecap:round;stroke-linejoin:miter;stroke:#ffffff;stroke-opacity:1;stroke-miterlimit:4;" d="M 47.998578 47.999141 L 541.195384 47.997692 " transform="matrix(0.464245,0.589047,-0.589047,0.464245,401.467248,321.767436)"/><g clip-rule="nonzero" clip-path="url(#c9680756f1)"><g clip-rule="nonzero" clip-path="url(#a470b50d85)"><g transform="matrix(1,0,0,1,91,36)"><g clip-path="url(#b3d7d2fc76)"><g clip-rule="nonzero" clip-path="url(#8427de2588)"><g clip-rule="nonzero" clip-path="url(#ad41bc2663)"><path style=" stroke:none;fill-rule:nonzero;fill:#ffffff;fill-opacity:1;" d="M 0.527344 0.601562 L 507.65625 0.601562 L 507.65625 507.730469 L 0.527344 507.730469 Z M 0.527344 0.601562 "/></g></g></g></g></g></g><g clip-rule="nonzero" clip-path="url(#523ff19a6f)"><g clip-rule="nonzero" clip-path="url(#940bbe8331)"><g transform="matrix(1,0,0,1,153,98)"><g clip-path="url(#011c2b5d4c)"><g clip-rule="nonzero" clip-path="url(#f3c4e8b183)"><g clip-rule="nonzero" clip-path="url(#fe0f0efcbf)"><path style=" stroke:none;fill-rule:nonzero;fill:#000000;fill-opacity:1;" d="M 0.015625 0.09375 L 384.167969 0.09375 L 384.167969 384.242188 L 0.015625 384.242188 Z M 0.015625 0.09375 "/></g></g></g></g></g></g></g></svg>